<svg width="14" height="13" viewBox="0 0 14 13" fill="none" xmlns="http://www.w3.org/2000/svg">
<path d="M3.14286 0.8125H0.785714C0.351362 0.8125 0 1.17584 0 1.625V4.0625C0 4.51166 0.351362 4.875 0.785714 4.875C1.22007 4.875 1.57143 4.51166 1.57143 4.0625V2.4375H3.14286C3.57721 2.4375 3.92857 2.07416 3.92857 1.625C3.92857 1.17584 3.57746 0.8125 3.14286 0.8125ZM13.2143 0.8125H10.8571C10.4228 0.8125 10.0714 1.17584 10.0714 1.625C10.0714 2.07416 10.4228 2.4375 10.8571 2.4375H12.4286V4.0625C12.4286 4.51166 12.7799 4.875 13.2143 4.875C13.6486 4.875 14 4.51166 14 4.0625V1.625C14 1.17584 13.6489 0.8125 13.2143 0.8125ZM3.14286 10.5625H1.57143V8.9375C1.57143 8.48834 1.22007 8.125 0.785714 8.125C0.351362 8.125 0 8.48834 0 8.9375V11.375C0 11.8242 0.351362 12.1875 0.785714 12.1875H3.14286C3.57721 12.1875 3.92857 11.8242 3.92857 11.375C3.92857 10.9258 3.57746 10.5625 3.14286 10.5625ZM13.2143 8.125C12.7799 8.125 12.4286 8.48834 12.4286 8.9375V10.5625H10.8571C10.4228 10.5625 10.0714 10.9258 10.0714 11.375C10.0714 11.8242 10.4228 12.1875 10.8571 12.1875H13.2143C13.6486 12.1875 14 11.8242 14 11.375V8.9375C14 8.48809 13.6489 8.125 13.2143 8.125Z" fill="#FF6557"/>
</svg>
