<svg width="8" height="11" viewBox="0 0 8 11" fill="none" xmlns="http://www.w3.org/2000/svg">
<path d="M7.1775 10.3521C7.61925 10.3521 7.955 9.9883 7.955 9.53965V1.43826C7.955 0.989611 7.59675 0.625763 7.155 0.625763C6.71325 0.625763 6.3775 0.989611 6.3775 1.41541V9.53787C6.3775 10.0094 6.7575 10.3521 7.1775 10.3521ZM1.31275 10.1871L6.11275 6.14746C6.30337 5.98405 6.3985 5.75315 6.3985 5.52234C6.3985 5.29144 6.30327 5.06074 6.11275 4.89723L1.31275 0.857579C0.797 0.378205 0 0.743322 0 1.43826V9.56072C0 10.2557 0.797 10.6213 1.31275 10.1871Z" fill="var(--color-primary)"/>
</svg>
