<svg width="13" height="13" viewBox="0 0 13 13" fill="none" xmlns="http://www.w3.org/2000/svg">
<path d="M10.7682 7.28712C10.384 6.90321 9.75 7.17474 9.75 7.71799V8.93751H8.53125L3.9 2.76251C3.74766 2.55938 3.50644 2.43751 3.25 2.43751H0.8125C0.36334 2.43751 0 2.80059 0 3.25001C0 3.69942 0.36334 4.06251 0.8125 4.06251H2.84375L7.475 10.2375C7.62734 10.4432 7.86855 10.5625 8.125 10.5625H9.74924V11.7797C9.74924 12.3228 10.4058 12.5953 10.79 12.2114L12.7984 10.1806C13.0367 9.94229 13.0367 9.55628 12.7984 9.31811L10.7682 7.28712ZM8.53125 4.06251H9.74924V5.28202C9.74924 5.82512 10.4061 6.0968 10.7674 5.7129L12.7758 3.68215C13.0141 3.44371 13.0141 3.0578 12.7758 2.81964L10.7674 0.788893C10.3832 0.404987 9.72661 0.677403 9.72661 1.22053V2.43751H8.125C7.86957 2.43751 7.62836 2.55811 7.47525 2.76276L6.44922 4.13106L7.44199 5.48438L8.53125 4.06251ZM2.84375 8.93751H0.8125C0.36334 8.93751 0 9.30085 0 9.75001C0 10.1992 0.36334 10.5625 0.8125 10.5625H3.25C3.50543 10.5625 3.74664 10.4419 3.89975 10.2373L4.92553 8.86946L3.91016 7.51563L2.84375 8.93751Z" fill="var(--color-primary)"/>
</svg>
