<svg width="13" height="13" viewBox="0 0 13 13" fill="none" xmlns="http://www.w3.org/2000/svg">
<path d="M12.1875 6.48896C11.7388 6.48896 11.375 6.85169 11.375 7.30009C11.375 8.64199 10.2817 9.73346 8.9375 9.73346H4.875V8.71956C4.875 8.47954 4.73337 8.26178 4.51369 8.16343C4.29355 8.06812 4.03711 8.10614 3.85684 8.26837L1.82559 10.0934C1.69838 10.2075 1.625 10.3722 1.625 10.5446C1.625 10.717 1.6984 10.8812 1.82655 10.9968L3.8578 12.8218C3.97109 12.9247 4.11836 12.978 4.26562 12.978C4.34972 12.978 4.43358 12.9605 4.51334 12.9257C4.73281 12.8284 4.875 12.6104 4.875 12.3696V11.3557H8.9375C11.1775 11.3557 13 9.53626 13 7.30009C13 6.85143 12.6369 6.48896 12.1875 6.48896ZM4.0625 3.24446H8.10215L8.125 4.25837C8.125 4.49838 8.26663 4.71614 8.48631 4.81449C8.5668 4.84897 8.65059 4.86671 8.71152 4.86671C8.85909 4.86671 9.00529 4.81285 9.11955 4.71067L11.1508 2.88564C11.3014 2.77046 11.375 2.6057 11.375 2.41052C11.375 2.21534 11.3016 2.0739 11.1734 1.95832L9.1422 0.133284C8.96327 -0.0267101 8.70573 -0.0663285 8.48636 0.029511C8.26719 0.15047 8.10215 0.368257 8.10215 0.6083L8.125 1.62221H4.0625C1.82254 1.62221 0 3.44217 0 5.67784C0 6.12624 0.363848 6.48896 0.8125 6.48896C1.26115 6.48896 1.625 6.12624 1.625 5.67784C1.625 4.33694 2.71934 3.24446 4.0625 3.24446Z" fill="var(--color-primary)"/>
</svg>
