<svg width="13" height="13" viewBox="0 0 13 13" fill="none" xmlns="http://www.w3.org/2000/svg">
<path d="M1.50001 10.2131H9.125L9.12499 11.3477C9.12499 11.5877 9.26662 11.8055 9.4863 11.9038C9.70643 11.9991 9.96288 11.9611 10.1432 11.7989L12.1744 9.97385C12.3016 9.85978 12.375 9.69502 12.375 9.52266C12.375 9.35029 12.3016 9.18604 12.1734 9.07045L10.1422 7.24542C10.0289 7.14251 9.88163 7.08928 9.73437 7.08928C9.65027 7.08928 9.5664 7.1067 9.48665 7.14154C9.26718 7.23883 9.12499 7.45682 9.12499 7.69762V8.71305H1.50001C1.50001 8.71305 1 8.75277 1 9.50825C1 10.2637 1.50001 10.2131 1.50001 10.2131Z" fill="#FF6557"/>
<path d="M1.50001 4.1238H9.125L9.12499 5.25844C9.12499 5.49846 9.26662 5.71622 9.4863 5.81457C9.70643 5.90987 9.96288 5.87185 10.1432 5.70963L12.1744 3.88459C12.3016 3.77053 12.375 3.60577 12.375 3.43341C12.375 3.26104 12.3016 3.09679 12.1734 2.9812L10.1422 1.15617C10.0289 1.05326 9.88163 1.00003 9.73437 1.00003C9.65027 1.00003 9.5664 1.01746 9.48665 1.0523C9.26718 1.14958 9.12499 1.36757 9.12499 1.60837V2.6238H1.50001C1.50001 2.6238 1 2.66352 1 3.41901C1 4.17449 1.50001 4.1238 1.50001 4.1238Z" fill="#FF6557"/>
</svg>
