<svg width="10" height="15" viewBox="0 0 10 15" fill="none" xmlns="http://www.w3.org/2000/svg">
<path d="M8.5 0.341614H7.5C6.67156 0.341614 6 1.13909 6 2.08947V12.777C6 13.7607 6.67156 14.5582 7.5 14.5582L8.5 14.625C9.32844 14.625 10 13.8275 10 12.8438V2.15626C10 1.17249 9.32812 0.341614 8.5 0.341614ZM2.5 0.341614H1.5C0.671562 0.341614 0 1.13909 0 2.12286V12.8104C0 13.8272 0.671562 14.625 1.5 14.625H2.5C3.32844 14.625 4 13.8275 4 12.8438V2.15626C4 1.17249 3.32812 0.341614 2.5 0.341614Z" fill="#FFD0CC"/>
</svg>
