<svg width="8" height="11" viewBox="0 0 8 11" fill="none" xmlns="http://www.w3.org/2000/svg">
<path d="M0.7775 0.625765C0.33575 0.625765 0 0.989613 0 1.43827V9.56073C0 10.0094 0.35825 10.3732 0.8 10.3732C1.24175 10.3522 1.6 10.0094 1.6 9.53965V1.43827C1.6 0.989613 1.24175 0.625765 0.7775 0.625765ZM6.6875 0.813148L1.8875 4.8528C1.6955 5.03789 1.6 5.26895 1.6 5.5C1.6 5.73091 1.6955 5.96161 1.886 6.12512L6.686 10.1648C7.20175 10.5995 7.99875 10.2346 7.99875 9.53965V1.41719C7.9775 0.743324 7.2025 0.378207 6.6875 0.813148Z" fill="#FF6557"/>
</svg>
