<svg width="12" height="11" viewBox="0 0 12 11" fill="none" xmlns="http://www.w3.org/2000/svg">
<path d="M9.02563 3.91016C8.80075 3.73111 8.46978 3.76262 8.28734 3.98325C8.10346 4.20325 8.13628 4.52788 8.36117 4.70813C8.60781 4.90703 8.75 5.19492 8.75 5.48067C8.75 5.7851 8.60781 6.07342 8.36041 6.27193C8.13553 6.45232 8.10272 6.77682 8.28658 6.99682C8.38981 7.12156 8.54077 7.18592 8.69258 7.18592C8.80948 7.18592 8.92773 7.1477 9.02486 7.06993C9.51781 6.69238 9.8 6.11445 9.8 5.48067C9.8 4.84688 9.51781 4.30547 9.02563 3.91016ZM10.3491 2.32461C10.1255 2.14556 9.79475 2.17641 9.61012 2.39637C9.42624 2.61637 9.45906 2.941 9.68328 3.12125C10.4256 3.69746 10.85 4.58262 10.85 5.48067C10.85 6.37871 10.4248 7.24453 9.68384 7.85899C9.45963 8.03937 9.42681 8.36387 9.61069 8.58387C9.7146 8.70794 9.86488 8.77231 10.0167 8.77231C10.1343 8.77231 10.2519 8.73409 10.3496 8.65563C11.3356 7.88262 11.9 6.72461 11.9 5.48067C11.9 4.23672 11.3356 3.11524 10.3491 2.32461ZM6.58875 0.751524C6.33719 0.640214 6.04166 0.685438 5.83559 0.865177L2.88313 3.43965H1.05C0.470094 3.43965 0 3.90113 0 4.47004V6.53082C0 7.09973 0.470094 7.56121 1.05 7.56121H2.884L5.83494 10.135C5.96531 10.248 6.13156 10.3082 6.3 10.3082C6.39708 10.3082 6.49598 10.2882 6.58788 10.2473C6.84031 10.1363 7 9.89141 7 9.62285V1.37758C7 1.10752 6.84031 0.862169 6.58875 0.751524Z" fill="var(--color-primary-verylight)"/>
</svg>
